<svg id="Layer_1" data-name="Layer 1" xmlns="http://www.w3.org/2000/svg" viewBox="0 0 206.84 167.16"><defs><style>.cls-1,.cls-4{fill:#461e3d;}.cls-1{opacity:0.08;}.cls-2{fill:#e03c31;}.cls-3{fill:#59cbe8;}</style></defs><title>logo-lapo</title><path class="cls-1" d="M127.62,48.31V73.89h30.22A30.69,30.69,0,0,0,127.62,48.31Z" transform="translate(-22.12 -22.24)"/><path class="cls-2" d="M37.22,180.72a1.62,1.62,0,0,1,1.7,1.7v2.18a1.62,1.62,0,0,1-1.7,1.7H34.54v3H32.81v-8.63Zm-.43,4a.37.37,0,0,0,.41-.41v-1.51a.37.37,0,0,0-.41-.41H34.54v2.33Zm13.76,3a1.62,1.62,0,0,1-1.7,1.7H46.09a1.62,1.62,0,0,1-1.7-1.7v-7h1.73v6.64a.37.37,0,0,0,.41.41h1.9a.37.37,0,0,0,.41-.41v-6.64h1.73Zm10.33-7a1.62,1.62,0,0,1,1.7,1.7v1.22a1.41,1.41,0,0,1-.76,1.29,1.39,1.39,0,0,1,.85,1.3v1.42a1.62,1.62,0,0,1-1.7,1.7H56.52v-8.63Zm-.43,3.45c.31,0,.41-.07.41-.41v-1a.37.37,0,0,0-.41-.41H58.25v1.85Zm.1,3.57a.37.37,0,0,0,.41-.41V186.1c0-.36-.22-.38-.55-.38H58.25v2Zm9.69-7v7h3.62v1.63H68.51v-8.63Zm9.13,0H81.1v8.63H79.37Zm12,2a.37.37,0,0,0-.41-.41H89.13a.37.37,0,0,0-.41.41v4.65a.37.37,0,0,0,.41.41H91a.37.37,0,0,0,.41-.41v-1.05h1.73v1.39a1.62,1.62,0,0,1-1.7,1.7H88.69a1.62,1.62,0,0,1-1.7-1.7v-5.33a1.62,1.62,0,0,1,1.7-1.7h2.73a1.62,1.62,0,0,1,1.7,1.7v1.39H91.4Zm19.22-2a1.62,1.62,0,0,1,1.7,1.7v5.33a1.62,1.62,0,0,1-1.7,1.7h-2.89a1.62,1.62,0,0,1-1.7-1.7v-5.33a1.62,1.62,0,0,1,1.7-1.7Zm0,2a.37.37,0,0,0-.41-.41h-2a.37.37,0,0,0-.41.41v4.65a.37.37,0,0,0,.41.41h2a.37.37,0,0,0,.41-.41Zm11.75-2a1.62,1.62,0,0,1,1.7,1.7v1.22a1.41,1.41,0,0,1-.76,1.29,1.39,1.39,0,0,1,.85,1.3v1.42a1.62,1.62,0,0,1-1.7,1.7H118v-8.63Zm-.43,3.45c.31,0,.41-.07.41-.41v-1a.37.37,0,0,0-.41-.41h-2.21v1.85Zm.1,3.57a.37.37,0,0,0,.41-.41V186.1c0-.36-.22-.38-.55-.38h-2.16v2Zm12-5a.37.37,0,0,0-.41-.41h-1.73a.37.37,0,0,0-.41.41v.82c0,.26.14.35.41.41l2.23.48c.94.2,1.73.77,1.73,1.73v1.56a1.62,1.62,0,0,1-1.7,1.7h-2.69a1.62,1.62,0,0,1-1.7-1.7v-1.1h1.68v.77a.37.37,0,0,0,.41.41h1.87a.37.37,0,0,0,.41-.41v-.91c0-.26-.14-.35-.41-.41l-2.23-.48c-.94-.2-1.73-.77-1.73-1.73v-1.46a1.62,1.62,0,0,1,1.7-1.7H134a1.62,1.62,0,0,1,1.7,1.7v1H134Zm13.32-2v1.63H143.4v1.77h3.18v1.63H143.4v2h3.92v1.63h-5.65v-8.63Zm10.24,8.63-1.39-3.2h-1.39v3.2H153v-8.63h4.4a1.62,1.62,0,0,1,1.7,1.7v2a1.61,1.61,0,0,1-1.18,1.63l1.44,3.27Zm-.13-6.6a.37.37,0,0,0-.41-.41h-2.24v2.19H157a.37.37,0,0,0,.41-.41Zm10.21,6.6h-2L163,180.72h2l1.67,6.56,1.71-6.56h1.92Zm6.75,0H172.6l2.78-8.63h2l2.78,8.63h-1.86l-.56-1.94H175Zm1.06-3.57h1.85l-.91-3.17ZM187,182.33v7h-1.73v-7H183v-1.61h6.24v1.61Zm11.13-1.66a1.62,1.62,0,0,1,1.7,1.7v5.33a1.62,1.62,0,0,1-1.7,1.7h-2.89a1.62,1.62,0,0,1-1.7-1.7v-5.33a1.62,1.62,0,0,1,1.7-1.7Zm0,2a.37.37,0,0,0-.41-.41h-2a.37.37,0,0,0-.41.41v4.65a.37.37,0,0,0,.41.41h2a.37.37,0,0,0,.41-.41Zm11.17,6.64-1.39-3.2H206.5v3.2h-1.73v-8.63h4.4a1.62,1.62,0,0,1,1.7,1.7v2a1.61,1.61,0,0,1-1.18,1.63l1.44,3.27Zm-.13-6.6a.37.37,0,0,0-.41-.41H206.5v2.19h2.24a.37.37,0,0,0,.41-.41Zm9.29,6.6v-3l-2.66-5.65h1.9l1.63,3.69,1.63-3.69h1.9l-2.66,5.65v3ZM75.2,50.31a2.42,2.42,0,1,0-2.42,2.42A2.42,2.42,0,0,0,75.2,50.31Zm87.23-24a4.1,4.1,0,1,0-4.1,4.1A4.1,4.1,0,0,0,162.44,26.34Z" transform="translate(-22.12 -22.24)"/><path class="cls-3" d="M123.41,130.7a3,3,0,0,1-3,3h-9a3,3,0,0,1,0-5.93h9A3,3,0,0,1,123.41,130.7Zm52.27-43.95a3,3,0,0,1-3,3H154.22a2.53,2.53,0,1,0,0,5.06h10.16a3,3,0,0,1,0,5.93H133.56a2.53,2.53,0,0,0,0,5.05h23.33a3,3,0,0,1,0,5.93h-35.1a2.53,2.53,0,1,0,0,5.06H133.2a3,3,0,1,1,0,5.93H102.05a3,3,0,0,1,0-5.93h6.43a2.53,2.53,0,1,0,0-5.06H94.22a3,3,0,0,1,0-5.93h26.1a2.53,2.53,0,0,0,0-5.05H94.78a3,3,0,0,1,0-5.93h5.62a2.53,2.53,0,1,0,0-5.06H82a3,3,0,0,1,0-5.93h90.72A3,3,0,0,1,175.67,86.75Zm-34.73,3H113.67a2.53,2.53,0,1,0,0,5.06h27.27a2.53,2.53,0,1,0,0-5.06ZM175,50.31a2.42,2.42,0,1,0-2.42,2.42A2.42,2.42,0,0,0,175,50.31ZM89.47,38.63a4.1,4.1,0,1,0-4.1,4.1A4.1,4.1,0,0,0,89.47,38.63Z" transform="translate(-22.12 -22.24)"/><path class="cls-4" d="M85.61,166.35l-2.69-3.58,5.93-6.37h2.74v-4.16H80.18v4.12h3L77,162.92v.15l4.51,6.22c2.16,3,4.21,4.61,7.45,4.61a7.51,7.51,0,0,0,2.6-.44v-3.92a6,6,0,0,1-1.27.15C88.26,169.69,87.08,168.31,85.61,166.35Zm-9.5,2.74H79v4.31H61.41V171a9.1,9.1,0,0,1-6.71,2.94c-4,0-6.91-2.3-6.91-6.47,0-5.1,4.36-6.57,9.85-6.57h3.48v-1.32c0-2.55-1-3.67-4.56-3.67a26.7,26.7,0,0,0-7,1.08v-4.12a30.56,30.56,0,0,1,8.18-1.18c5.68,0,8.92,2,8.92,7.79v9.6h3.92v-26H67.34v-4.31h8.77Zm-15-4.75H57.88c-2.89,0-4.56.74-4.56,2.89,0,1.32.64,2.79,3,2.79a6.61,6.61,0,0,0,4.75-2.3Zm50.56-2.11a13.06,13.06,0,0,1-.2,2.35H97.18c.54,3.33,2.55,5.14,6.37,5.14a14.2,14.2,0,0,0,6.81-2V172a15.5,15.5,0,0,1-7.64,1.91c-7.45,0-11.12-4.7-11.12-11.12S95.26,151.7,102,151.7,111.68,156.41,111.68,162.24Zm-5.19-1.52c-.2-2.5-1.18-5-4.41-5s-4.56,2.35-4.95,5Zm70.4,9a10.19,10.19,0,0,0,3.28-.54v4.07a19,19,0,0,1-5,.74c-5.24,0-6.61-2.5-6.61-6.37v-11h-9.16V169.1h4.26v4.31H140.39V168.9h3.92l-1.57-4.07H130.49l-1.57,4.07h3.92v4.51h-13V168.9h3.53l8.43-20.82h-4.07v-4.51h12.2l10.24,25.33h3.58v.2h0V156.6h-4.07v-4.36h4.07V146c0-5.83,3.67-7.79,8.08-7.79a23.48,23.48,0,0,1,4.12.44v4.07a16.76,16.76,0,0,0-2.69-.24c-2.11,0-4,.59-4,3.63v6.13h9.16v-5.39H174v5.39h5.78v4.36H174v10.68C174,169.29,175.22,169.69,176.89,169.69ZM141,160.33l-4.41-11.27-4.36,11.27Zm61.83,2.5c0,6.57-4,11.12-11.17,11.12s-11.17-4.56-11.17-11.12,4-11.12,11.17-11.12S202.85,156.26,202.85,162.83Zm-5.73,0c0-3.87-1.67-7-5.44-7s-5.44,3.09-5.44,7,1.67,7,5.44,7S197.12,166.7,197.12,162.83Zm28.61,6.27V158.27c0-4.36-2.45-6.57-6.32-6.57a12.48,12.48,0,0,0-7.84,3.18v-2.65H203v4.31h3.23V169.1H203v4.31h12V169.1h-3.23V158.52a10.3,10.3,0,0,1,5.88-2.45c2,0,2.6,1,2.6,2.74V169.1H217v4.31h12V169.1ZM184.12,76.46A2.58,2.58,0,0,1,181.54,79H72.73a2.58,2.58,0,0,1,0-5.15H83.27a44.46,44.46,0,0,1,60.21-36.35l1.81.7a.68.68,0,0,1,.38.9l-3.09,7.41a35.89,35.89,0,0,1,20.26,27.34h18.7A2.58,2.58,0,0,1,184.12,76.46ZM127.41,48.31A30.69,30.69,0,0,0,97.19,73.89h60.44A30.69,30.69,0,0,0,127.41,48.31ZM88.48,73.89H92a35.79,35.79,0,0,1,45.8-29.19l1.06-2.53a.68.68,0,0,0-.43-.92,41.4,41.4,0,0,0-25.39,1l-.06,0C99,48.29,90.23,60.28,88.48,73.89Zm-47,90.21h5.24v9.31H22.12V168.9h4V148.08h-4v-4.51H36.58v4.51H31.83V168.9h9.65Z" transform="translate(-22.12 -22.24)"/></svg>